<?xml version="1.0" encoding="UTF-8" standalone="no"?>
<svg
   width="252.75981"
   height="263.87961"
   version="1.1"
   id="svg16"
   sodipodi:docname="logo2.svg"
   inkscape:version="1.1.2 (0a00cf5339, 2022-02-04)"
   xmlns:inkscape="http://www.inkscape.org/namespaces/inkscape"
   xmlns:sodipodi="http://sodipodi.sourceforge.net/DTD/sodipodi-0.dtd"
   xmlns="http://www.w3.org/2000/svg"
   xmlns:svg="http://www.w3.org/2000/svg">
  <defs
     id="defs20">
    <clipPath
       clipPathUnits="userSpaceOnUse"
       id="clipPath1908">
      <rect
         style="opacity:0.5;fill:#808080;fill-rule:evenodd;stroke-width:1.61454"
         id="rect1910"
         width="504.80185"
         height="529.3606"
         x="223.03738"
         y="245.82243" />
    </clipPath>
    <clipPath
       clipPathUnits="userSpaceOnUse"
       id="clipPath1912">
      <rect
         style="opacity:0.5;fill:#808080;fill-rule:evenodd;stroke-width:1.61454"
         id="rect1914"
         width="504.80185"
         height="529.3606"
         x="223.03738"
         y="245.82243" />
    </clipPath>
    <clipPath
       clipPathUnits="userSpaceOnUse"
       id="clipPath1916">
      <rect
         style="opacity:0.5;fill:#808080;fill-rule:evenodd;stroke-width:1.61454"
         id="rect1918"
         width="504.80185"
         height="529.3606"
         x="223.03738"
         y="245.82243" />
    </clipPath>
    <clipPath
       clipPathUnits="userSpaceOnUse"
       id="clipPath1920">
      <rect
         style="opacity:0.5;fill:#808080;fill-rule:evenodd;stroke-width:1.61454"
         id="rect1922"
         width="504.80185"
         height="529.3606"
         x="223.03738"
         y="245.82243" />
    </clipPath>
    <clipPath
       clipPathUnits="userSpaceOnUse"
       id="clipPath1924">
      <rect
         style="opacity:0.5;fill:#808080;fill-rule:evenodd;stroke-width:1.61454"
         id="rect1926"
         width="504.80185"
         height="529.3606"
         x="223.03738"
         y="245.82243" />
    </clipPath>
    <clipPath
       clipPathUnits="userSpaceOnUse"
       id="clipPath1928">
      <rect
         style="opacity:0.5;fill:#808080;fill-rule:evenodd;stroke-width:1.61454"
         id="rect1930"
         width="504.80185"
         height="529.3606"
         x="223.03738"
         y="245.82243" />
    </clipPath>
    <clipPath
       clipPathUnits="userSpaceOnUse"
       id="clipPath1932">
      <rect
         style="opacity:0.5;fill:#808080;fill-rule:evenodd;stroke-width:1.61454"
         id="rect1934"
         width="504.80185"
         height="529.3606"
         x="223.03738"
         y="245.82243" />
    </clipPath>
  </defs>
  <sodipodi:namedview
     id="namedview18"
     pagecolor="#ffffff"
     bordercolor="#666666"
     borderopacity="1.0"
     inkscape:pageshadow="2"
     inkscape:pageopacity="0.0"
     inkscape:pagecheckerboard="0"
     showgrid="false"
     fit-margin-top="0"
     fit-margin-left="0"
     fit-margin-right="0"
     fit-margin-bottom="0"
     inkscape:zoom="1.0389105"
     inkscape:cx="145.82584"
     inkscape:cy="131.86891"
     inkscape:window-width="1366"
     inkscape:window-height="719"
     inkscape:window-x="0"
     inkscape:window-y="25"
     inkscape:window-maximized="1"
     inkscape:current-layer="svg16" />
  <path
     fill="#fefefe"
     transform="matrix(0.503906,0,0,0.501953,-112.38988,-125.02608)"
     d="m 376.251,252.103 0.639,0.379 c 2.135,1.205 4.993,1.602 7.311,2.524 8.732,3.473 17.826,9.454 23.251,17.242 l -1,0.989 -1.188,0.122 c -0.004,2.877 1.585,4.247 3.473,6.309 l -109.075,33.135 c -0.317,2.568 -0.628,5.143 -1.229,7.661 -0.638,2.673 -2.875,7.541 -1.85,9.939 -0.695,1.8 -2.442,3.439 -3.687,4.896 -3.663,4.286 -7.48,8.498 -12.35,11.451 -8.577,5.201 -17.938,6.424 -27.701,4.025 -11.771,-2.892 -19.328,-9.561 -25.48,-19.799 -6.199,-10.316 -7.66,-24.119 -4.584,-35.684 2.163,-8.129 9.683,-17.34 17.157,-21.416 6.31,-3.441 15.122,-4.65 22.085,-2.665 3.576,1.019 7.157,2.086 10.477,3.795 2.805,1.445 5.379,3.279 8.25,4.621 1.311,0.612 2.659,0.775 4.091,0.538 3.907,-0.646 8.007,-2.371 11.821,-3.507 l 29.346,-8.908 c 16.687,-5.256 33.898,-9.4 50.243,-15.647 z"
     id="path2"
     clip-path="url(#clipPath1932)" />
  <path
     fill="#22b96b"
     transform="matrix(0.503906,0,0,0.501953,-112.38988,-125.02608)"
     d="m 252.642,277.7 c 6.551,0.344 12.768,2.991 17.665,7.386 8.616,7.733 13.952,18.07 14.584,29.739 0.439,8.105 -1.136,16.181 -6.745,22.355 -4.963,5.462 -10.728,6.808 -17.823,7.141 -7.571,-0.435 -14.052,-2.495 -20.12,-7.151 -7.21,-5.53 -12.088,-15.03 -13.052,-24.014 -0.969,-9.026 0.613,-18.418 6.506,-25.576 5.013,-6.09 11.161,-9.17 18.985,-9.88 z"
     id="path4"
     clip-path="url(#clipPath1928)" />
  <path
     fill="#22b96b"
     transform="matrix(0.503906,0,0,0.501953,-112.38988,-125.02608)"
     d="m 447.523,421.274 22.472,9.814 c 5.523,2.071 11.144,4.24 16.916,5.506 3.604,0.791 7.373,0.931 11.033,1.351 18.034,2.067 35.384,0.894 52.802,-4.544 9.999,-3.122 19.464,-7.561 28.981,-11.89 l 0.22,0.302 0.223,34.396 c -0.402,16.539 -1.636,32.558 -11.257,46.563 l -8.919,10.589 c -13.518,13.521 -28.466,18.747 -47.494,18.499 -18.019,-0.235 -34.218,-7.672 -46.577,-20.745 -23.212,-24.555 -19.244,-58.893 -18.4,-89.841 z"
     id="path6"
     clip-path="url(#clipPath1924)" />
  <path
     fill="#22b96b"
     transform="matrix(0.503906,0,0,0.501953,-112.38988,-125.02608)"
     d="m 514.38,299.064 c 3.078,-0.158 5.733,0.052 8.651,1.114 6.397,2.327 12.461,5.434 18.647,8.251 l 33.647,15.26 50.328,22.63 c 6.726,3.147 13.873,5.728 20.176,9.681 -7.321,3.582 -15.464,5.921 -23.157,8.645 l -40.73,15.023 c -0.843,3.083 -0.445,7.46 -0.539,10.712 -0.738,1.354 -1.858,2.485 -3.022,3.483 -4.53,3.882 -10.8,7.173 -16.19,9.709 -18.541,8.722 -38.335,12.4 -58.75,11.11 -15.512,-0.98 -31.362,-6.379 -45.11,-13.516 -5.199,-2.698 -10.229,-5.419 -14.119,-9.859 -0.659,-4.953 -0.077,-9.96 0.426,-14.9 l -14.438,-3.127 -25.121,-6.877 0.889,19.128 1.016,0.738 c 3.169,2.354 4.981,4.396 5.485,8.481 0.715,5.795 -1.581,7.867 -5.025,12.018 3.199,3.614 6.105,7.486 7.836,12.033 2.363,6.208 2.353,13.025 2.482,19.572 l 0.119,18.885 c -9.014,2.077 -19.996,0.941 -29.279,0.971 l -0.048,-28.23 c 0.467,-9.728 4.424,-17.402 11.685,-23.842 l 0.627,-0.551 c -2.947,-2.684 -4.845,-4.582 -5.669,-8.683 -0.5,-2.492 -0.14,-4.859 1.397,-6.919 1.569,-2.102 3.252,-2.798 5.783,-3.181 l 0.523,-0.073 0.901,-20.905 -13.782,-4.158 c -1.407,-0.628 -2.994,-2.18 -3.489,-3.646 -0.419,-1.239 -0.128,-2.166 0.447,-3.291 1.071,-2.095 3.222,-4.088 5.29,-5.154 5.982,-3.083 12.491,-5.513 18.733,-8.024 l 31.822,-12.773 47.55,-19.476 c 7.997,-3.357 15.828,-7.378 24.008,-10.259 z m -4.635,19.521 -91.386,38.275 10.763,1.84 14.601,1.828 c 3.8,0.428 6.3,1.475 10.027,-0.034 l 17.512,-6.23 32.102,-12.504 c 4.553,-1.925 9.304,-3.631 13.649,-5.99 -2.316,-5.56 -4.352,-11.956 -7.268,-17.185 z"
     id="path8"
     clip-path="url(#clipPath1920)" />
  <path
     fill="#22b96b"
     transform="matrix(0.503906,0,0,0.501953,-112.38988,-125.02608)"
     d="m 376.251,252.103 c 10.556,-3.54 22.467,-4.646 32.765,0.41 10.423,5.117 18.493,14.972 22.28,25.907 0.891,2.575 2.486,7.855 1.136,10.336 -0.48,0.881 -38.582,12.947 -43.072,14.519 -1.538,0.539 -6.274,1.697 -7.165,2.753 -0.909,1.078 -1.626,5.602 -1.96,7.064 L 375.36,334.5 352.838,435.778 c -2.963,13.864 -6.812,27.823 -8.95,41.842 -0.866,5.674 -0.799,11.433 0.09,17.097 0.628,4.003 2.088,7.883 3.528,11.657 5.844,15.311 16.76,29.652 30.091,39.214 21.412,15.357 45.189,14.223 70.18,15.814 4.558,-4.303 7.24,-8.137 10.498,-13.425 0.403,-0.653 0.329,-0.455 1.143,-0.974 3.765,-1.163 7.832,-1.111 11.739,-1.256 5.962,-0.221 11.163,-0.914 16.908,1.011 l 0.418,0.078 c 5.78,0.988 11.579,0.834 17.419,0.825 l 20.848,-0.11 c 4.243,-0.074 8.456,-0.532 12.69,-0.054 l 14.56,0.477 c 4.594,0.178 12.298,-0.994 16.221,1.513 l 2.931,-2.846 5.699,14.319 c 20.991,1.42 41.431,5.299 60.457,14.703 37.848,18.707 66.72,54.027 79.816,93.852 6.421,19.528 6.916,41.871 3.13,61.935 -1.625,8.609 -4.242,17.874 -8.283,25.665 -3.265,6.296 -6.75,12.276 -11.762,17.35 l -67.978,0.04 -120.639,0.04 -68.109,-0.068 c -10.933,-0.011 -22.419,0.78 -33.255,-0.131 -2.957,-0.248 -5.226,-1.09 -7.35,-3.227 -1.401,-1.409 -2.52,-3.598 -2.797,-5.56 -0.658,-4.673 -0.201,-9.897 -0.208,-14.629 l -0.147,-26.958 -0.157,-110.603 -12.178,-2.337 c -33.538,-8.351 -60.26,-32.557 -77.567,-61.726 -6.745,-11.367 -10.999,-23.502 -13.955,-36.306 -1.263,-5.47 -2.588,-11.103 -2.811,-16.73 -0.598,-15.156 3.133,-29.299 6.572,-43.915 l 10.878,-43.839 11.301,-46.985 11.641,-45.087 -23.59,8.142 c -4.647,1.585 -11.406,2.873 -15.277,5.817 -1.025,-2.398 1.212,-7.266 1.85,-9.939 0.601,-2.518 0.912,-5.093 1.229,-7.661 l 109.075,-33.135 c -1.888,-2.062 -3.477,-3.432 -3.473,-6.309 l 1.188,-0.122 1,-0.989 c -5.425,-7.788 -14.519,-13.769 -23.251,-17.242 -2.318,-0.922 -5.176,-1.319 -7.311,-2.524 z m 247.3,387.186 0.909,107.705 c 10.53,-2.025 22.598,-5.085 30.392,-12.994 8.023,-8.218 12.543,-18.108 12.598,-29.75 0.086,-18.419 -9.286,-38.547 -22.274,-51.318 -5.955,-5.857 -13.778,-10.754 -21.625,-13.643 z M 408.737,279.668 c 1.089,-0.363 2.06,-0.372 2.613,-1.418 l -1.38,-2.5 c -1.166,-1.787 -1.427,-2.058 -3.518,-2.513 l -1.188,0.122 c -0.004,2.877 1.585,4.247 3.473,6.309 z"
     id="path10"
     clip-path="url(#clipPath1916)" />
  <path
     fill="#fefefe"
     transform="matrix(0.503906,0,0,0.501953,-112.38988,-125.02608)"
     d="m 459.418,547.003 c 3.765,-1.163 7.832,-1.111 11.739,-1.256 5.962,-0.221 11.163,-0.914 16.908,1.011 l 0.418,0.078 c 5.78,0.988 11.579,0.834 17.419,0.825 l 20.848,-0.11 c 4.243,-0.074 8.456,-0.532 12.69,-0.054 l 14.56,0.477 c 4.594,0.178 12.298,-0.994 16.221,1.513 l -57.722,82.538 c -10.143,-13.878 -19.037,-28.897 -28.336,-43.36 l -16.255,-24.687 c -3.011,-4.687 -7.853,-11.366 -8.49,-16.975 z"
     id="path12"
     clip-path="url(#clipPath1912)" />
  <path
     fill="#22b96b"
     transform="matrix(0.503906,0,0,0.501953,-112.38988,-125.02608)"
     d="m 488.483,546.836 c 5.78,0.988 11.579,0.834 17.419,0.825 l 20.848,-0.11 c 4.243,-0.074 8.456,-0.532 12.69,-0.054 l -15.161,22.736 c -3.621,6.033 -6.451,13.199 -11.056,18.515 -6.218,-8.777 -11.657,-18.35 -17.354,-27.491 -2.723,-4.368 -6.267,-8.838 -8.386,-13.507 z"
     id="path14"
     clip-path="url(#clipPath1908)" />
</svg>
